Cover: 
 
http://www.shotpix.com/images/61362736088321664019.jpg


Release Title: Fun. - Some Nights (2012)

Fun.'s music video for 'Some Nights' from the full-length album, Some Nights (C) WMG Music,


                          1080p Full HD MP4 Video
                                    +
                           96 Kbps/VBR M4A Audio


Sing Along!
English subtitles included.


General
Complete name                  : Fun - Some Nights  (1080p) x264 [VX] [P2PDL].mp4
Format                         : MPEG-4
Format profile                 : Base Media / Version 2
File size                      : 51.6 MiB
Duration                       : 5mn 39s
Overall bit rate mode          : Variable
Overall bit rate               : 1 273 Kbps


Video
ID                             : 1
Format                         : AVC
Format/Info                    : Advanced Video Codec
Duration                       : 5mn 39s
Bit rate mode                  : Variable
Bit rate                       : 1 138 Kbps
Width                          : 1 916 pixels
Height                         : 780 pixels
Display aspect ratio           : 2.456
Frame rate mode                : Variable
Frame rate                     : 23.976 fps
Bit depth                      : 8 bits
Scan type                      : Progressive
Stream size                    : 46.2 MiB (90%)
Writing library                : x264 core 125


Audio
ID                             : 2
Format                         : AAC
Format/Info                    : Advanced Audio Codec
Format profile                 : LC
Duration                       : 5mn 39s
Bit rate mode                  : Variable
Bit rate                       : 127 Kbps
Maximum bit rate               : 208 Kbps
Channel(s)                     : 2 channels
Channel positions              : Front: L R
Sampling rate                  : 48.0 KHz
Stream size                    : 5.15 MiB (10%)


Subtitle                       : Yes (English)




Screens:

 
http://www.shotpix.com/images/59614389043340582439.jpg 
http://www.shotpix.com/images/10042623235832216331.jpg


Thumbs:
 
http://www.shotpix.com/images/76611015190708856200.jpg


------------------------------------------------------------------------


Notes:

* Best played on VLC Media Player.
* Install shark007 codecs in case of any kind of problem in playback (For non-VLC Media Player users).
* Alternatively, install Core AVC codecs, the fastest decoder that there is coupled with Community Center Codec Pack and play on Windows Media Player Classic.
* Read NFO
* Help in seeding this torrent as much as you can. 



Greets to: srkfan, VYTO, MgB, staff members at ExtraTorrent, TPB,KAT, 1337x, PublicHD, Ahashare,
SilverTorrent, TorrentMafia, P2PDL, and all others


Encoder Notes: Looking For Early Access To Anything You Can Provide DVDScr, R5, DVDRips, BluRay, Direct Audio, Early Music
Releases, Seedboxes, Links, Dedicated Servers anything u can provide, Advance / Promo CDs/DVDs. If You Got anything to
offer contact me at "contact@tinym.eu"


Facebook Fan Page: http : // www . facebook . com / p2pdl

                                   Enjoy!